<svg id="Layer_3" data-name="Layer 3" xmlns="http://www.w3.org/2000/svg" xmlns:xlink="http://www.w3.org/1999/xlink" viewBox="0 0 424.2 266.34"><defs><style>.cls-1{stroke:#434444;stroke-miterlimit:10;stroke-width:10px;fill:url(#New_Gradient_Swatch_4);}</style><linearGradient id="New_Gradient_Swatch_4" x1="252.74" y1="313.6" x2="252.74" y2="57.26" gradientUnits="userSpaceOnUse"><stop offset="0" stop-color="#fff"/><stop offset="0" stop-color="#d34c62"/><stop offset="0.16" stop-color="#d75e65"/><stop offset="0.49" stop-color="#e18c6e"/><stop offset="0.95" stop-color="#f2d57c"/><stop offset="1" stop-color="#f4dd7d"/><stop offset="1" stop-color="#c6b365"/><stop offset="1" stop-color="#9d8e50"/><stop offset="1" stop-color="#776c3d"/><stop offset="1" stop-color="#574e2c"/><stop offset="1" stop-color="#3b361e"/><stop offset="1" stop-color="#252213"/><stop offset="1" stop-color="#14130a"/><stop offset="1" stop-color="#090804"/><stop offset="1" stop-color="#020201"/><stop offset="1"/></linearGradient></defs><title>backarrow</title><path class="cls-1" d="M444.44,130.89c17.6.77,15.3,63.58,15.3,63.58s-3.82,55.91-15.3,55.91-216.62,2.3-216.62,2.3,11,52.6,0,59c-6.89,9.45-69.9-16.94-114.82-50.55C79.42,236,45.64,208.94,45.64,188.68s34-49,67.36-75.4C156.05,79.16,201,52,224.75,58.13c17.1,22,8.42,49.78,1.54,74.3C226.29,132.43,426.83,130.13,444.44,130.89Z" transform="translate(-40.64 -52.26)"/></svg>
