<?xml version="1.0" encoding="utf-8"?>
<!-- Generator: Adobe Illustrator 23.0.6, SVG Export Plug-In . SVG Version: 6.00 Build 0)  -->
<svg version="1.1" id="Layer_1" xmlns="http://www.w3.org/2000/svg" xmlns:xlink="http://www.w3.org/1999/xlink" x="0px" y="0px"
	 viewBox="0 0 1365.1 574.5" style="enable-background:new 0 0 1365.1 574.5;" xml:space="preserve">
<style type="text/css">
	.st0{fill:#EFE3D5;}
	.st1{fill:#FFFFFF;stroke:#CCCCCC;stroke-width:5;stroke-miterlimit:10;}
</style>
<title>Artboard 3</title>
<g>
	<polygon class="st0" points="220.6,89.2 57.9,446.7 150.5,459 281.6,514.5 418.3,471.6 566.6,415.3 600.8,277.4 650.8,67.5 
		542.4,68.8 444.1,123.6 331.5,94 	"/>
	<path class="st1" d="M212.5,70.1c-0.7-18.8-177.8,397-177.8,397c174.1-29.3,251.5,80.1,251.5,80.1l143.5-438.7
		C234.7,33.6,212.5,70.1,212.5,70.1z M229.1,106.3c0,0,33.7-8.3,73.5,7.4L265,201.8c0,0-40.7-15.9-79.4-2.8L229.1,106.3z
		 M119.2,353.8c93.8,2.3,151.9,24.8,151.9,24.8c-53.6,2.9-190.2,52.9-190.2,52.9L119.2,353.8z M266.5,491.6
		C220.4,455.7,156.9,445,156.9,445c44.7-29,130.6-38.6,130.6-38.6L266.5,491.6z M307.9,367.7c0,0-87.3-59.5-178.3-41.2l41.6-95.2
		c0,0,94.5-14.7,171.6,38.1L307.9,367.7z M292.6,208.2l41.9-86.3c0,0,38.1,2.2,51.7,23.5l-32.9,96.1
		C353.3,241.5,330.1,220.1,292.6,208.2L292.6,208.2z"/>
	<path class="st1" d="M556.1,51.9c-54.6,14.9-90,37.1-111.4,49.2c-6.1,3.4-11,6-14.9,7.5c-27.5,10-136.4,437.7-136.4,437.7
		c84.5-67.8,287.9-107.2,287.9-107.2l66.1-222l31.8-106.8l21.8-73.1C642,34.5,594.4,41.4,556.1,51.9z M438.6,150.1
		c3.6-8.6,5.7-13.7,11.7-16.9c15.2-12,24.1-12.9,54-13L471,314.6c-41.6,11.8-87,37.3-87,37.3L438.6,150.1z M554.6,400.5
		c0,0-135.7,12.8-212.3,73.3l27.1-86.6c0,0,119.6-74.6,197.7-55.5L554.6,400.5z M573.6,299.4c0,0-38.5-10.3-74.2,4.9l6.1-31.7
		c0,0,59.6-19.6,80.6-9.8L573.6,299.4z M632.6,103.8L598,221.9l-5.1,17.5c0,0-31.5-5.6-84.7,14.1l0.3-1.8l8.2-43.1l18-94.9
		c15.4-9.4,32.1-16.3,49.6-20.8c16-3.9,34.2-5.6,51.8-1L632.6,103.8z"/>
	<path class="st1" d="M1254.3,93.3c0,0-2.1-32.3-73.8-16.9c-71.3,15.3-51.5,125.9-51.5,125.9s10.3,84.3,67.3,86.4
		c45.5,1.7,86.7,8.4,80.8-38.2c-5.5-43.1-46.3-27.5-46.3-27.5s-39.3,7.8-43.3-26c-3.3-27.2,1.2-51.6,31.8-57.5
		C1254.3,132.9,1256.6,119,1254.3,93.3z"/>
	<path class="st1" d="M1107.2,106.2c-12.2-1.5-31.1,1.7-31.1,1.7s-11.4,7.9-4.3,94.1c4,48.5,1,78.7,28,77.4
		c25.8-1.3,37.3,2.6,34.2-26.2c-0.4-3.4-0.6-6.9-0.7-10.3C1132.7,216.1,1128.8,108.9,1107.2,106.2z"/>
	<ellipse class="st1" cx="1085.5" cy="77.2" rx="25.5" ry="22.9"/>
	<path class="st1" d="M1054.9,278.3c-11.6,2.8-20.6,10.2-36.2-39.3c-15.1-47.9-24.8-98.2-28.9-64.6c-4.6,37.1,0.9,100.8-33.7,2.3
		c-24.4-69.5,10.7,112.9-38.4,106.2c-38-5.2-38.8-10.6-34.4-53.7s18.9-132.9,18.9-132.9s1.2-23.8,20.2-23.3c21,0.5,20.9-3.1,31,22.8
		s16.2,63.4,24.4-0.8c2.8-21.5,5-25.2,17.7-26.8s18.4-6.6,34.8,29.8c18.1,40.3,43.6,118.9,43.6,118.9l9.4,39
		C1083.2,255.9,1087.7,270.4,1054.9,278.3z"/>
	<path class="st1" d="M830.5,61.3c-40.3-2.4-76,46.5-79.7,109.2s26,115.4,66.3,117.8s76-46.5,79.7-109.2S870.8,63.7,830.5,61.3z
		 M858.3,183.4c-1.7,29.7-18.7,52.9-37.8,51.7s-33.2-26.1-31.4-55.8s18.7-52.9,37.8-51.7S860.1,153.7,858.3,183.4z"/>
	<path class="st1" d="M681.1,163.6c0.3,7.1,1.3,14.1,3.1,20.9c3.1,10.8,8.6,19.8,18,25.5c7.2,4.4,16.8,6.8,29.2,6.6h1.2
		c12.7-0.1,22.1,1.1,29.2,3.7c17.1,6.1,22.6,18.3,23.1,37.5c0,0,0.7,21.3-42.4,29.7c-10.2,1.9-20.5,3.1-30.9,3.5
		c-4.6,0.2-9.5,0.3-14.7,0.3c-14.4,0-26.4-3.1-36.5-8.2c-5.1-2.6-9.8-5.8-14.1-9.5c-11-9.4-18.7-21.7-24.2-34.5
		c-3.2-7.4-5.7-15.1-7.7-22.9c-3.7-14.7-5.6-29.8-5.8-44.9c0,0-4.6-90.5,64.6-105.5c55.1-11.9,101.3-26.2,106.2,21.9
		c4.1,40.5-50.9,39.1-50.9,39.1S679.2,127.4,681.1,163.6z"/>
	<path class="st1" d="M1293.1,281.8c-13.3-2.2-24.1-9.6-38.5,44.7c-13.9,52.4-21.4,107.1-28.4,71.3c-7.8-39.5-5.8-108.2-38.4-0.2
		c-23,76.3,4.5-121.9-50.9-111.3c-42.8,8.2-43.3,14-35.4,60s30.5,141.4,30.5,141.4s3,25.4,24.5,23.7c23.8-2,23.9,1.9,33.7-26.6
		c9.8-28.5,14-69.2,27.8-0.8c4.6,22.9,7.4,26.7,22,27.6c14.6,0.9,21.4,5.8,37.4-34.4c17.8-44.4,41.3-130.6,41.3-130.6l8.1-42.5
		C1326.9,303.9,1331,288,1293.1,281.8z"/>
	<path class="st1" d="M1023.2,473.5c5.4,47,2.7,41.6,22.8,44.3l72.5-0.8c0,0,24.2,0.5,22.8-16.1c-2.3-28.1-2.7-26.8-25.5-29.5
		s-32.2,2.2-34.9-4.6s-8.1-29.5-4-34.9s30.9-2.7,32.2-2.7s12.7,1.5,16.1-12.1c2.1-9,1.2-18.4-2.7-26.8c-4.6-9.1-13.4-5.4-24.2-5.4
		s-24.2,2-24.2-10.2s-8-32.2,14.8-32.2s51,1.3,51-20.1c0-22.3,6.8-34.3-32.2-32.7c-48.3,1.9-68.4,2.7-68.4,2.7s-24.1-1.3-21.5,51
		L1023.2,473.5z"/>
	<path class="st1" d="M978,511.5c11.5,2.6,30,1.3,30,1.3s11.8-6.5,13.1-90.2c0.7-47,6.5-75.8-19.6-77.1
		c-24.9-1.3-35.6-6.1-35.4,21.9c0,3.3-0.1,6.7-0.3,10C963.9,403.4,957.4,507,978,511.5z"/>
	<ellipse class="st1" cx="994.3" cy="314.6" rx="25.5" ry="22.9"/>
	<path class="st1" d="M907.3,362.6c0,0-5.4-70.8,34.2-60.8c26,6.6,25.2,5.7,21.7,50.6c-3.2,39.9-11.2,86.3-16.5,119.9
		c-5.7,36.2-3.3,38.8-39.6,40.5c-50.8,2.3-36.5,10.6-50.6-53.9c-9.5-43.7-22.5-93-27.7-123.1c-3.7-21.5,4.9-30.2,18.4-33.8
		c30.4-8.2,32.7-0.4,39,33.1c10.2,53.7,19.8,124.1,21.3,64.8C908.1,377.9,907.3,362.6,907.3,362.6z"/>
	<path class="st1" d="M739.9,345.9c4.5-44.3,2-39.2,21-42l79.6-7.3c0,0,16.4-4,15.5,22.6s-1,25.3-22.4,28.1s-36.7-2.1-39.2,4.3
		s-7.2,27.9-3.4,32.9s29.1,2.2,30.4,2.2s12-1.6,15.3,11.2c2.1,8.5,1.3,17.4-2.2,25.3c-4.2,8.7-12.6,5.2-22.7,5.3
		s-17.7-1.1-17.6,10.3s-3.4,30.4,18.1,30.1s40.4-7.9,43.2,12.1s3,34.1-33.7,37.1c-45.5,3.7-64.6-1.7-64.6-1.7s-22.8,1.5-20.8-47.8
		L739.9,345.9z"/>
	<path class="st1" d="M747.3,477.3c-1.4-16.5-73.3-62.2-58.9-68.6s23.7-2.5,39.7-22.9c12-15.3,15.6-62.3,0-75s-42-16.5-52.9-16.5
		s-48.7-5.7-63.7,5.1c-22.5,16.2-23.1,203.2-14.4,213.4c10.2,12.1,39,13.3,48.1,3.8c5.4-5.8-8.4-76.2,3.6-64.8s45.7,62,61.3,63.5
		C724.5,516.9,749.1,498.7,747.3,477.3z M647.6,343.9c0.5-7.2,2.8-9.4,9.6-8.9c10.4,0.8,28.4,9,34.8,17.8
		c8.4,11.5-27.6,24.1-37.3,25.4C648.3,379.1,646.7,357.4,647.6,343.9z"/>
</g>
</svg>
