<?xml version="1.0" encoding="utf-8"?>
<!-- Generator: Adobe Illustrator 23.0.6, SVG Export Plug-In . SVG Version: 6.00 Build 0)  -->
<svg version="1.1" id="Layer_1" xmlns="http://www.w3.org/2000/svg" xmlns:xlink="http://www.w3.org/1999/xlink" x="0px" y="0px"
	 viewBox="0 0 1703.7 378.4" style="enable-background:new 0 0 1703.7 378.4;" xml:space="preserve">
<style type="text/css">
	.st0{fill:#EFE3D5;}
	.st1{fill:#FFFFFF;stroke:#CCCCCC;stroke-width:5;stroke-miterlimit:10;}
	.st2{fill:#FFFFFF;}
</style>
<title>Artboard 2</title>
<g>
	<polygon class="st0" points="716.5,44 583.1,272 644.2,286.5 728.1,332.7 822.5,313.3 925.6,285.9 957.9,196 1005.7,59 933.2,52.4 
		863.6,82.3 790.3,54.8 	"/>
	<path class="st1" d="M712.4,30.7C713.2,18,566.2,284,566.2,284c118.5-7.6,162.8,70.9,162.8,70.9L855.1,71.3
		C729.7,7.7,712.4,30.7,712.4,30.7z M721,56c0,0,23.1-3.3,48.7,10l-31.2,56.4c0,0-26.2-13.4-53-7.3L721,56z M630.5,214
		c62.6,8,99.9,27,99.9,27c-36-1.8-130.9,22.3-130.9,22.3L630.5,214z M719.5,316.3c-28.3-27.2-70.1-38.6-70.1-38.6
		c31.9-16.3,90-16.9,90-16.9L719.5,316.3z M755.7,236.3c0,0-54.3-45.8-116.5-39.8l34.5-60.9c0,0,64.2-3.4,112.2,37.2L755.7,236.3z
		 M756.4,128.6l34-54.9c0,0,25.3,4.1,33,19.3L794.8,155C794.8,155,780.7,139,756.4,128.6L756.4,128.6z"/>
	<path class="st1" d="M943.5,42c-37.5,6.3-62.8,18.6-77.9,25.3c-3.4,1.6-6.9,2.9-10.5,4C836,76,733.8,354.7,733.8,354.7
		c61.2-39.6,200-52,200-52l59.4-144l28.6-69.3l19.6-47.4C1002.2,36.3,969.8,37.7,943.5,42z M858.2,99.7c3-5.5,4.8-8.8,9-10.5
		c11-7,17-7,37-5L868.5,212c-28.6,5-60.8,19-60.8,19L858.2,99.7z M918.6,275.2c0,0-91.7-0.8-147,34.4l24.1-56.1
		c0,0,85.1-41.7,136-23.5L918.6,275.2z M938.3,208.8c0,0-25-9.5-50-1.8l6.3-20.8c0,0,41.2-9,54.6-1L938.3,208.8z M991.1,82
		l-31.3,76.6l-4.6,11.3c0,0-20.7-5.9-57.6,3.6l0.4-1.2l8.4-28.3L925,81.8c10.9-5.2,22.6-8.7,34.6-10.5c11-1.5,23.3-1.4,34.8,2.9
		L991.1,82z"/>
	<path class="st2" d="M951.5,202l23.3,6.4l0.6-1.8l45-71.4l9.9-16c-7.2-4.2-12.9-10.3-19.7-13.2L951.5,202z"/>
	<path class="st1" d="M660.6,117.5c0,0-2-30.5-69.8-16c-67.4,14.4-48.7,119-48.7,119s9.7,79.7,63.7,81.7c43,1.6,82,7.9,76.4-36.1
		c-5.2-40.8-43.8-26-43.8-26s-37.2,7.3-41-24.5c-3.1-25.7,1.2-48.8,30-54.4C660.6,154.9,662.8,141.8,660.6,117.5z"/>
	<path class="st1" d="M519.2,131.5c-11.8-1.4-30,1.6-30,1.6s-11.1,7.7-4.2,91c3.9,46.9,0.9,76,27,74.8c24.9-1.2,36,2.5,33.1-25.3
		c-0.3-3.3-0.5-6.6-0.6-10C543.8,237.8,540.1,134,519.2,131.5z"/>
	
		<ellipse transform="matrix(1.570732e-03 -1 1 1.570732e-03 396.9968 603.4033)" class="st1" cx="500.7" cy="102.9" rx="22.9" ry="25.5"/>
	<path class="st1" d="M468.3,303.4c-11.6,2.8-20.7,10.2-36.3-39.3c-15.1-47.8-24.8-98.2-28.9-64.6c-4.6,37.1,0.9,100.8-33.7,2.3
		C345,132.3,380.2,314.7,331.1,308c-38-5.2-38.8-10.6-34.4-53.7s18.9-132.9,18.9-132.9s1.2-23.8,20.2-23.3c21,0.5,20.9-3.1,31,22.8
		s16.1,63.4,24.4-0.8c2.8-21.6,5-25.2,17.7-26.8s18.5-6.6,34.8,29.8c18.1,40.3,43.5,118.9,43.5,118.9l9.5,39
		C496.7,281,501.2,295.6,468.3,303.4z"/>
	<path class="st1" d="M243.9,86.5c-40.3-2.4-76,46.5-79.7,109.2s26,115.4,66.4,117.8s76-46.5,79.7-109.2S284.2,88.9,243.9,86.5z
		 M271.8,208.5c-1.7,29.7-18.6,52.8-37.8,51.7s-33.2-26.1-31.4-55.8s18.6-52.9,37.8-51.7S273.5,178.8,271.8,208.5z"/>
	<path class="st1" d="M94.5,188.7c0.3,7.1,1.3,14.1,3.1,20.9c3.1,10.8,8.6,19.8,18,25.5c7.2,4.4,16.8,6.8,29.2,6.6h1.2
		c12.7-0.1,22.1,1.1,29.2,3.7c17.1,6.1,22.6,18.3,23.1,37.5c0,0,0.7,21.3-42.4,29.7c-10.2,1.9-20.5,3.1-30.9,3.5
		c-4.6,0.2-9.5,0.3-14.7,0.3c-14.4,0-26.4-3.1-36.4-8.2c-5.1-2.6-9.8-5.8-14.1-9.5c-11-9.4-18.7-21.8-24.2-34.5
		c-3.2-7.4-5.7-15.1-7.7-22.9c-3.7-14.7-5.6-29.8-5.8-44.9c0,0-4.6-90.5,64.6-105.4C141.9,79,188.1,64.8,193,112.8
		c4.1,40.5-50.9,39.1-50.9,39.1S92.7,152.6,94.5,188.7z"/>
	<path class="st1" d="M1638.1,77.5c-12.8-2.1-23.2-9.2-37,43c-13.3,50.4-20.6,103.1-27.4,68.6c-7.5-38-5.6-104.2-37-0.2
		c-22.1,73.4,4.3-117.4-49-107.2c-41.2,7.9-41.7,13.5-34.1,57.7s29.4,136.1,29.4,136.1s2.9,24.5,23.6,22.8
		c22.9-1.9,23,1.8,32.4-25.6s13.5-66.6,26.8-0.8c4.5,22.1,7.1,25.7,21.2,26.5s20.6,5.6,36-33.1c17.2-42.8,39.8-125.8,39.8-125.8
		l7.8-40.9C1670.5,98.7,1674.5,83.4,1638.1,77.5z"/>
	<path class="st1" d="M1370.5,259.8c5.2,45.7,2.6,40.5,22.2,43.1l70.6-0.8c0,0,23.5,0.5,22.2-15.7c-2.2-27.4-2.6-26.1-24.8-28.8
		c-22.2-2.6-31.4,2.1-34-4.4c-2.6-6.5-7.8-28.7-3.9-34s30-2.6,31.3-2.6s12.4,1.5,15.7-11.8c2-8.8,1.1-17.9-2.6-26.1
		c-4.4-8.9-13.1-5.2-23.5-5.2s-23.5,1.9-23.5-9.9s-7.8-31.4,14.4-31.4s49.6,1.3,49.6-19.6c0-21.7,6.6-33.4-31.3-31.9
		c-47,1.8-66.6,2.6-66.6,2.6s-23.5-1.3-20.9,49.6L1370.5,259.8z"/>
	<path class="st1" d="M1325.5,296.7c11.6,2.6,30,1.3,30,1.3s11.8-6.5,13.1-90.1c0.7-47,6.5-75.8-19.6-77.1
		c-24.9-1.3-35.6-6.1-35.4,21.9c0,3.3-0.1,6.7-0.3,10C1311.3,188.5,1304.9,292.1,1325.5,296.7z"/>
	<ellipse class="st1" cx="1341.8" cy="99.8" rx="25.5" ry="22.9"/>
	<path class="st1" d="M1254.8,147.7c0,0-5.4-70.8,34.2-60.8c26,6.6,25.2,5.7,21.7,50.6c-3.2,39.9-11.2,86.3-16.5,119.9
		c-5.7,36.2-3.3,38.8-39.6,40.5c-50.8,2.3-36.5,10.6-50.6-53.9c-9.5-43.7-22.5-93-27.7-123.1c-3.7-21.5,4.9-30.2,18.4-33.8
		c30.4-8.2,32.7-0.4,39,33.1c10.2,53.7,19.8,124.1,21.3,64.8C1255.6,163.1,1254.8,147.7,1254.8,147.7z"/>
	<path class="st1" d="M1087.4,131.1c4.5-44.3,2-39.2,21-42l79.6-7.3c0,0,16.4-4,15.5,22.6s-1,25.3-22.4,28.1s-36.7-2.1-39.2,4.3
		s-7.2,27.9-3.4,32.9s29.1,2.2,30.4,2.1s12-1.6,15.3,11.2c2.1,8.5,1.3,17.4-2.2,25.3c-4.2,8.7-12.6,5.2-22.7,5.3
		s-17.7-1.1-17.6,10.3s-3.4,30.4,18.1,30.1s40.4-7.9,43.2,12.1c2.8,20.2,3,34.1-33.7,37.1c-45.5,3.7-64.6-1.7-64.6-1.7
		s-22.8,1.5-20.8-47.8L1087.4,131.1z"/>
	<path class="st1" d="M1094.8,262.5c-1.4-16.5-73.3-62.2-58.9-68.6s23.7-2.5,39.7-22.9c12-15.3,15.6-62.3,0-75s-42.1-16.5-52.9-16.5
		S974,73.8,959,84.6c-22.5,16.2-23.1,203.2-14.4,213.4c10.2,12.1,39,13.3,48.1,3.8c5.4-5.8-8.4-76.2,3.6-64.8s45.7,62,61.3,63.5
		C1071.9,302,1096.5,283.8,1094.8,262.5z M995.1,129.1c0.5-7.2,2.8-9.4,9.6-8.9c10.4,0.8,28.4,8.9,34.8,17.8
		c8.4,11.5-27.6,24.1-37.3,25.4C995.8,164.2,994.2,142.5,995.1,129.1z"/>
</g>
</svg>
