<svg id="Layer_1" data-name="Layer 1" xmlns="http://www.w3.org/2000/svg" xmlns:xlink="http://www.w3.org/1999/xlink" viewBox="0 0 1656.04 336.71"><defs><style>.cls-1{fill:#ace6f9;}.cls-2{fill:#fff;}.cls-10,.cls-11,.cls-12,.cls-13,.cls-14,.cls-2,.cls-3,.cls-4,.cls-5,.cls-6,.cls-7,.cls-8,.cls-9{stroke:#434444;stroke-miterlimit:10;stroke-width:5px;}.cls-3{fill:url(#linear-gradient);}.cls-4{fill:url(#linear-gradient-2);}.cls-5{fill:url(#linear-gradient-3);}.cls-6{fill:url(#linear-gradient-4);}.cls-7{fill:url(#linear-gradient-5);}.cls-8{fill:url(#linear-gradient-6);}.cls-9{fill:url(#linear-gradient-7);}.cls-10{fill:url(#linear-gradient-8);}.cls-11{fill:url(#linear-gradient-9);}.cls-12{fill:url(#linear-gradient-10);}.cls-13{fill:url(#linear-gradient-11);}.cls-14{fill:url(#linear-gradient-12);}.cls-15{fill:url(#linear-gradient-13);}.cls-16{fill:#434444;}</style><linearGradient id="linear-gradient" x1="611.23" y1="303.44" x2="611.23" y2="97.59" gradientUnits="userSpaceOnUse"><stop offset="0" stop-color="#fff"/><stop offset="0" stop-color="#d34c62"/><stop offset="0.16" stop-color="#d75e65"/><stop offset="0.49" stop-color="#e18c6e"/><stop offset="0.95" stop-color="#f2d57c"/><stop offset="1" stop-color="#f4dd7d"/><stop offset="1" stop-color="#c6b365"/><stop offset="1" stop-color="#9d8e50"/><stop offset="1" stop-color="#776c3d"/><stop offset="1" stop-color="#574e2c"/><stop offset="1" stop-color="#3b361e"/><stop offset="1" stop-color="#252213"/><stop offset="1" stop-color="#14130a"/><stop offset="1" stop-color="#090804"/><stop offset="1" stop-color="#020201"/><stop offset="1"/></linearGradient><linearGradient id="linear-gradient-2" x1="514.15" y1="298.94" x2="514.15" y2="131.13" xlink:href="#linear-gradient"/><linearGradient id="linear-gradient-3" x1="500.68" y1="125.76" x2="500.68" y2="79.96" gradientTransform="translate(602.76 -397.98) rotate(89.91)" xlink:href="#linear-gradient"/><linearGradient id="linear-gradient-4" x1="395.89" y1="308.18" x2="395.89" y2="92.14" xlink:href="#linear-gradient"/><linearGradient id="linear-gradient-5" x1="237.25" y1="313.58" x2="237.25" y2="86.42" xlink:href="#linear-gradient"/><linearGradient id="linear-gradient-6" x1="109.17" y1="316.4" x2="109.17" y2="79.31" xlink:href="#linear-gradient"/><linearGradient id="linear-gradient-7" x1="1560.26" y1="299.01" x2="1560.26" y2="75.97" xlink:href="#linear-gradient"/><linearGradient id="linear-gradient-8" x1="1425.38" y1="302.9" x2="1425.38" y2="80.57" xlink:href="#linear-gradient"/><linearGradient id="linear-gradient-9" x1="1340.2" y1="298.33" x2="1340.2" y2="129.66" xlink:href="#linear-gradient"/><linearGradient id="linear-gradient-10" x1="1323.26" y1="98.55" x2="1323.26" y2="52.75" xlink:href="#linear-gradient"/><linearGradient id="linear-gradient-11" x1="1243.96" y1="299.53" x2="1243.96" y2="84.09" xlink:href="#linear-gradient"/><linearGradient id="linear-gradient-12" x1="1143.94" y1="304.5" x2="1143.94" y2="81.59" xlink:href="#linear-gradient"/><linearGradient id="linear-gradient-13" x1="1017.14" y1="308.11" x2="1017.14" y2="78" xlink:href="#linear-gradient"/></defs><title>long book middle</title><polygon class="cls-1" points="697.96 19.85 564.56 247.85 625.66 262.35 709.56 308.55 803.96 289.15 907.06 261.75 939.36 171.85 987.16 34.85 914.66 28.25 845.06 58.15 771.76 30.65 697.96 19.85"/><path class="cls-2" d="M712.4,30.7C713.2,18,566.2,284,566.2,284,684.7,276.4,729,354.9,729,354.9L855.1,71.3C729.7,7.7,712.4,30.7,712.4,30.7ZM721,56s23.1-3.3,48.7,10l-31.2,56.4s-26.2-13.4-53-7.3ZM630.5,214c62.6,8,99.9,27,99.9,27-36-1.8-130.9,22.3-130.9,22.3Zm89,102.3c-28.3-27.2-70.1-38.6-70.1-38.6,31.9-16.3,90-16.9,90-16.9Zm36.2-80s-54.3-45.8-116.5-39.8l34.5-60.9s64.2-3.4,112.2,37.2Zm.7-107.7,34-54.9s25.3,4.1,33,19.3l-28.6,62a116.44,116.44,0,0,0-38.4-26.4Z" transform="translate(-18.54 -24.15)"/><path class="cls-2" d="M943.5,42c-37.5,6.3-62.8,18.6-77.9,25.3a78.26,78.26,0,0,1-10.5,4C836,76,733.8,354.7,733.8,354.7c61.2-39.6,200-52,200-52l59.4-144,28.6-69.3L1041.4,42C1002.2,36.3,969.8,37.7,943.5,42ZM858.2,99.7c3-5.5,4.8-8.8,9-10.5,11-7,17-7,37-5L868.5,212c-28.6,5-60.8,19-60.8,19Zm60.4,175.5s-91.7-.8-147,34.4l24.1-56.1s85.1-41.7,136-23.5Zm19.7-66.4s-25-9.5-50-1.8l6.3-20.8s41.2-9,54.6-1ZM991.1,82l-31.3,76.6-4.6,11.3s-20.7-5.9-57.6,3.6l.4-1.2,8.4-28.3L925,81.8a122.64,122.64,0,0,1,34.6-10.5c11-1.5,23.3-1.4,34.8,2.9Z" transform="translate(-18.54 -24.15)"/><path class="cls-3" d="M660.6,117.5s-2-30.5-69.8-16c-67.4,14.4-48.7,119-48.7,119s9.7,79.7,63.7,81.7c43,1.6,82,7.9,76.4-36.1-5.2-40.8-43.8-26-43.8-26s-37.2,7.3-41-24.5c-3.1-25.7,1.2-48.8,30-54.4C660.6,154.9,662.8,141.8,660.6,117.5Z" transform="translate(-18.54 -24.15)"/><path class="cls-4" d="M519.2,131.5c-11.8-1.4-30,1.6-30,1.6s-11.1,7.7-4.2,91c3.9,46.9.9,76,27,74.8,24.9-1.2,36,2.5,33.1-25.3-.3-3.3-.5-6.6-.6-10C543.8,237.8,540.1,134,519.2,131.5Z" transform="translate(-18.54 -24.15)"/><ellipse class="cls-5" cx="500.68" cy="102.86" rx="22.9" ry="25.5" transform="translate(378.5 579.24) rotate(-89.91)"/><path class="cls-6" d="M468.3,303.4c-11.6,2.8-20.7,10.2-36.3-39.3-15.1-47.8-24.8-98.2-28.9-64.6-4.6,37.1.9,100.8-33.7,2.3C345,132.3,380.2,314.7,331.1,308c-38-5.2-38.8-10.6-34.4-53.7s18.9-132.9,18.9-132.9,1.2-23.8,20.2-23.3c21,.5,20.9-3.1,31,22.8s16.1,63.4,24.4-.8c2.8-21.6,5-25.2,17.7-26.8s18.5-6.6,34.8,29.8C461.8,163.4,487.2,242,487.2,242l9.5,39S501.2,295.6,468.3,303.4Z" transform="translate(-18.54 -24.15)"/><path class="cls-7" d="M243.9,86.5c-40.3-2.4-76,46.5-79.7,109.2s26,115.4,66.4,117.8,76-46.5,79.7-109.2S284.2,88.9,243.9,86.5Zm27.9,122c-1.7,29.7-18.6,52.8-37.8,51.7s-33.2-26.1-31.4-55.8,18.6-52.9,37.8-51.7S273.5,178.8,271.8,208.5Z" transform="translate(-18.54 -24.15)"/><path class="cls-8" d="M93.5,188.7a97.69,97.69,0,0,0,3.1,20.9c3.1,10.8,8.6,19.8,18,25.5,7.2,4.4,16.8,6.8,29.2,6.6H145c12.7-.1,22.1,1.1,29.2,3.7,17.1,6.1,22.6,18.3,23.1,37.5,0,0,.7,21.3-42.4,29.7a213.34,213.34,0,0,1-30.9,3.5q-6.9.3-14.7.3c-14.4,0-26.4-3.1-36.4-8.2a71.14,71.14,0,0,1-14.1-9.5c-11-9.4-18.7-21.8-24.2-34.5a154.06,154.06,0,0,1-7.7-22.9,194.62,194.62,0,0,1-5.8-44.9S16.5,105.9,85.7,91C140.9,79,187.1,64.8,192,112.8c4.1,40.5-50.9,39.1-50.9,39.1S91.7,152.6,93.5,188.7Z" transform="translate(-18.54 -24.15)"/><path class="cls-9" d="M1638.1,77.5c-12.8-2.1-23.2-9.2-37,43-13.3,50.4-20.6,103.1-27.4,68.6-7.5-38-5.6-104.2-37-.2-22.1,73.4,4.3-117.4-49-107.2-41.2,7.9-41.7,13.5-34.1,57.7S1483,275.5,1483,275.5s2.9,24.5,23.6,22.8c22.9-1.9,23,1.8,32.4-25.6s13.5-66.6,26.8-.8c4.5,22.1,7.1,25.7,21.2,26.5s20.6,5.6,36-33.1c17.2-42.8,39.8-125.8,39.8-125.8l7.8-40.9C1670.5,98.7,1674.5,83.4,1638.1,77.5Z" transform="translate(-18.54 -24.15)"/><path class="cls-10" d="M1370.5,259.8c5.2,45.7,2.6,40.5,22.2,43.1l70.6-.8s23.5.5,22.2-15.7c-2.2-27.4-2.6-26.1-24.8-28.8s-31.4,2.1-34-4.4-7.8-28.7-3.9-34,30-2.6,31.3-2.6,12.4,1.5,15.7-11.8a41.09,41.09,0,0,0-2.6-26.1c-4.4-8.9-13.1-5.2-23.5-5.2s-23.5,1.9-23.5-9.9-7.8-31.4,14.4-31.4,49.6,1.3,49.6-19.6c0-21.7,6.6-33.4-31.3-31.9-47,1.8-66.6,2.6-66.6,2.6s-23.5-1.3-20.9,49.6Z" transform="translate(-18.54 -24.15)"/><path class="cls-11" d="M1325.5,296.7c11.6,2.6,30,1.3,30,1.3s11.8-6.5,13.1-90.1c.7-47,6.5-75.8-19.6-77.1-24.9-1.3-35.6-6.1-35.4,21.9,0,3.3-.1,6.7-.3,10C1311.3,188.5,1304.9,292.1,1325.5,296.7Z" transform="translate(-18.54 -24.15)"/><ellipse class="cls-12" cx="1323.26" cy="75.65" rx="25.5" ry="22.9"/><path class="cls-13" d="M1254.8,147.7s-5.4-70.8,34.2-60.8c26,6.6,25.2,5.7,21.7,50.6-3.2,39.9-11.2,86.3-16.5,119.9-5.7,36.2-3.3,38.8-39.6,40.5-50.8,2.3-36.5,10.6-50.6-53.9-9.5-43.7-22.5-93-27.7-123.1-3.7-21.5,4.9-30.2,18.4-33.8,30.4-8.2,32.7-.4,39,33.1,10.2,53.7,19.8,124.1,21.3,64.8C1255.6,163.1,1254.8,147.7,1254.8,147.7Z" transform="translate(-18.54 -24.15)"/><path class="cls-14" d="M1087.4,131.1c4.5-44.3,2-39.2,21-42l79.6-7.3s16.4-4,15.5,22.6-1,25.3-22.4,28.1-36.7-2.1-39.2,4.3-7.2,27.9-3.4,32.9,29.1,2.2,30.4,2.1,12-1.6,15.3,11.2a39.23,39.23,0,0,1-2.2,25.3c-4.2,8.7-12.6,5.2-22.7,5.3s-17.7-1.1-17.6,10.3-3.4,30.4,18.1,30.1,40.4-7.9,43.2,12.1c2.8,20.2,3,34.1-33.7,37.1-45.5,3.7-64.6-1.7-64.6-1.7s-22.8,1.5-20.8-47.8Z" transform="translate(-18.54 -24.15)"/><path class="cls-15" d="M1094.8,262.5c-1.4-16.5-73.3-62.2-58.9-68.6s23.7-2.5,39.7-22.9c12-15.3,15.6-62.3,0-75s-42.1-16.5-52.9-16.5S974,73.8,959,84.6c-22.5,16.2-23.1,203.2-14.4,213.4,10.2,12.1,39,13.3,48.1,3.8,5.4-5.8-8.4-76.2,3.6-64.8s45.7,62,61.3,63.5C1071.9,302,1096.5,283.8,1094.8,262.5ZM995.1,129.1c.5-7.2,2.8-9.4,9.6-8.9,10.4.8,28.4,8.9,34.8,17.8,8.4,11.5-27.6,24.1-37.3,25.4C995.8,164.2,994.2,142.5,995.1,129.1Z" transform="translate(-18.54 -24.15)"/><path class="cls-16" d="M1091.18,262.8a5.8,5.8,0,0,0-.56-1.91,17.38,17.38,0,0,0-1.29-2.36,44.06,44.06,0,0,0-3.6-4.79c-2.68-3.14-5.63-6.19-8.66-9.18-6.09-6-12.49-11.74-18.9-17.54-3.21-2.89-6.43-5.79-9.61-8.76s-6.37-5.95-9.4-9.18a58.32,58.32,0,0,1-4.38-5.16,23.87,23.87,0,0,1-2-3,9.82,9.82,0,0,1-1.28-4.14,5.32,5.32,0,0,1,.75-2.91,5.42,5.42,0,0,1,2.11-1.92c.17-.1.39-.21.54-.28l.39-.16.78-.33,1.57-.64c2.11-.78,4.25-1.48,6.37-2.06a81.9,81.9,0,0,0,12-3.83,37.09,37.09,0,0,0,10-6.82c.74-.73,1.49-1.43,2.22-2.17l2.1-2.3c.71-.76,1.34-1.61,2-2.41s1.35-1.63,1.87-2.41a41.35,41.35,0,0,0,5.07-11,79.92,79.92,0,0,0,2.8-12.22,101.8,101.8,0,0,0,1.16-12.56,87.28,87.28,0,0,0-.55-12.54,53.41,53.41,0,0,0-2.67-12c-.31-1-.74-1.86-1.11-2.78s-.85-1.77-1.37-2.57a16.56,16.56,0,0,0-3.5-4.26,54.13,54.13,0,0,0-10.3-6.46,79.35,79.35,0,0,0-11.63-4.52,114.34,114.34,0,0,0-24.68-4.72c-1-.06-2.07-.13-3.09-.16l-3.24-.08c-2.26-.09-4.42-.26-6.59-.41-8.62-.64-17.12-1.35-25.61-1.31a107.32,107.32,0,0,0-12.59.72,46.31,46.31,0,0,0-11.8,3l-1.34.61-1.26.69-1.19.76c-.38.26-.59.5-.91.74a17.38,17.38,0,0,0-3,4.66,66.05,66.05,0,0,0-4,11.72,220.79,220.79,0,0,0-4.49,25.15q-1.6,12.75-2.63,25.61c-1.44,17.13-2.27,34.34-2.69,51.55s-.42,34.44.15,51.62c.31,8.58.74,17.17,1.62,25.61.23,2.11.48,4.21.82,6.25a36,36,0,0,0,1.29,5.68,6.25,6.25,0,0,0,.28.62v0l.12.12.23.25.45.5,1,.93,1.08.86a25.74,25.74,0,0,0,5,2.86,42,42,0,0,0,11.55,3.06,45.42,45.42,0,0,0,12-.07,31.08,31.08,0,0,0,5.69-1.36,17.13,17.13,0,0,0,4.83-2.45,9.22,9.22,0,0,0,.92-.79l.21-.2s.1-.09.08-.08a.48.48,0,0,0-.09.11s-.06.1-.07.1h0s0,0,0-.06a10.26,10.26,0,0,0,.39-2.25,55.19,55.19,0,0,0,.11-6.08c-.27-8.41-1.16-17-1.84-25.65-.36-4.32-.69-8.65-.9-13-.1-2.2-.17-4.41-.16-6.66a44.57,44.57,0,0,1,.49-7,14.85,14.85,0,0,1,.47-2,8.26,8.26,0,0,1,1.18-2.49,5.48,5.48,0,0,1,1.6-1.52,4.61,4.61,0,0,1,1.31-.55,4.31,4.31,0,0,1,1.39-.16,5.44,5.44,0,0,1,2.14.5c.25.12.5.24.74.38s.38.25.57.38a13.3,13.3,0,0,1,1.64,1.43c.41.41.84.83,1.22,1.24.8.83,1.54,1.66,2.28,2.49,2.94,3.33,5.64,6.73,8.36,10.11,5.4,6.78,10.71,13.56,16.17,20.17a230.94,230.94,0,0,0,17,18.94,50.86,50.86,0,0,0,9.46,7.51l.61.35.6.29a8.22,8.22,0,0,0,1.17.5l.56.19.28.1.25,0a5.9,5.9,0,0,0,1.08.16,18.08,18.08,0,0,0,5.34-.55,35.33,35.33,0,0,0,10.61-4.84,43.53,43.53,0,0,0,8.94-7.86,35.69,35.69,0,0,0,6.14-9.91A24.79,24.79,0,0,0,1091.18,262.8Zm7.24-.6a32.2,32.2,0,0,1-2.22,14.33,40.47,40.47,0,0,1-3.2,6.38,47.06,47.06,0,0,1-4.22,5.64,50.56,50.56,0,0,1-10.52,9.12,42.23,42.23,0,0,1-12.91,5.72,24.77,24.77,0,0,1-7.51.68,13.66,13.66,0,0,1-2.12-.32l-.54-.11-.49-.16-1-.33a14.62,14.62,0,0,1-1.79-.78l-.86-.42-.79-.47a42.63,42.63,0,0,1-5.74-4.07c-1.76-1.46-3.45-2.94-5-4.49a235.84,235.84,0,0,1-17.68-19.48c-5.55-6.69-10.9-13.5-16.28-20.22-2.69-3.35-5.41-6.68-8.15-9.86-.69-.78-1.38-1.56-2.08-2.3-.35-.38-.69-.72-1-1.07a7,7,0,0,0-.78-.72c-.17-.18-.21,0,.51,0a3,3,0,0,0,.59-.08,2.36,2.36,0,0,0,.56-.24,1.52,1.52,0,0,0,.46-.4,4.44,4.44,0,0,0-.16.44,9.46,9.46,0,0,0-.27,1.13,38.53,38.53,0,0,0-.42,5.88c0,2.07,0,4.17.11,6.29.17,4.24.47,8.52.8,12.81.62,8.6,1.46,17.18,1.69,26a61.47,61.47,0,0,1-.18,6.86,15.21,15.21,0,0,1-.86,4.09,6.23,6.23,0,0,1-.31.68l-.2.36a4.07,4.07,0,0,1-.29.43c-.11.15-.23.29-.34.43l-.21.2-.38.36a15.17,15.17,0,0,1-1.54,1.3,23.67,23.67,0,0,1-6.68,3.39,38.49,38.49,0,0,1-6.9,1.6,52.55,52.55,0,0,1-13.78.07,48,48,0,0,1-13.4-3.58,32.73,32.73,0,0,1-6.23-3.59c-.49-.38-1-.78-1.45-1.16s-.92-.85-1.37-1.29l-.64-.7-.32-.35-.16-.17-.23-.32a7.93,7.93,0,0,1-.73-1.22c-.15-.34-.34-.73-.44-1a40.83,40.83,0,0,1-1.63-6.92c-.36-2.22-.62-4.41-.86-6.6-.91-8.74-1.33-17.41-1.64-26.09-.58-17.35-.52-34.68-.09-52s1.31-34.64,2.79-51.93q.59-6.48,1.33-13c.48-4.32,1-8.63,1.69-12.94a227.79,227.79,0,0,1,5.13-25.73A72.94,72.94,0,0,1,952,89.68a22,22,0,0,1,4.12-6.08,18.34,18.34,0,0,1,1.59-1.31c.51-.34,1-.68,1.53-1l1.57-.87c.53-.27,1.07-.5,1.61-.75a51.35,51.35,0,0,1,13.2-3.48,112.11,112.11,0,0,1,13.25-1.07c8.79-.23,17.54.23,26.14.83,2.15.14,4.29.28,6.35.35l3.24,0c1.13,0,2.25.11,3.37.19a116.22,116.22,0,0,1,13.19,1.83,109.24,109.24,0,0,1,12.89,3.3,85.78,85.78,0,0,1,12.44,5,59.86,59.86,0,0,1,11.48,7.44,22.4,22.4,0,0,1,4.62,5.75,35.13,35.13,0,0,1,1.64,3.16c.43,1.09.92,2.16,1.26,3.26a59.32,59.32,0,0,1,2.78,13.27,91.46,91.46,0,0,1,.41,13.33,110.61,110.61,0,0,1-1.31,13.22,86.41,86.41,0,0,1-3.06,13,46.77,46.77,0,0,1-5.83,12.39c-.7,1-1.41,1.83-2.12,2.69s-1.39,1.72-2.16,2.54l-2.27,2.46c-.79.8-1.62,1.57-2.43,2.35a42.14,42.14,0,0,1-11.37,7.65,87.51,87.51,0,0,1-12.69,4c-2.05.55-4,1.2-6,1.9l-1.42.59-.72.29-.35.15a1.48,1.48,0,0,0-.18.09c-.25.12-.26.21-.29.2s0,0,0,.18a5.28,5.28,0,0,0,.7,2,19,19,0,0,0,1.59,2.38,53,53,0,0,0,4.06,4.67c5.85,6.06,12.49,11.6,19,17.19s13.29,11.07,19.75,17a126.11,126.11,0,0,1,9.41,9.38,50.89,50.89,0,0,1,4.3,5.47,25.58,25.58,0,0,1,1.87,3.28A13,13,0,0,1,1098.42,262.2Z" transform="translate(-18.54 -24.15)"/><path class="cls-16" d="M991.48,128.85a19.37,19.37,0,0,1,1.2-5.12c.19-.45.41-.91.65-1.36a11.12,11.12,0,0,1,.91-1.36,8,8,0,0,1,2.63-2.21,9.87,9.87,0,0,1,3-1,18,18,0,0,1,2.69-.16,34.92,34.92,0,0,1,4.87.39,73,73,0,0,1,17.68,5.58,57.67,57.67,0,0,1,8.21,4.43,35.81,35.81,0,0,1,3.8,2.88c.58.56,1.18,1.1,1.73,1.71s1.08,1.24,1.6,1.89l.73,1,.36.52a3.92,3.92,0,0,1,.37.58c.25.44.52.86.73,1.33s.38,1,.54,1.52.19,1.1.25,1.65,0,1.1-.07,1.64-.21,1-.35,1.55l-.54,1.4a17.37,17.37,0,0,1-3.08,4.42,25.12,25.12,0,0,1-3.71,3.26,75.09,75.09,0,0,1-16.52,8.42c-2.86,1.08-5.74,2.07-8.68,3-1.46.45-3,.84-4.48,1.21-.77.19-1.54.36-2.36.52l-.63.1-.32.06c-.09,0-.38,0-.57,0a5.85,5.85,0,0,1-2.46-.4,7.39,7.39,0,0,1-3.16-2.46,13.62,13.62,0,0,1-1.54-2.55,26.33,26.33,0,0,1-1.68-4.81,53.44,53.44,0,0,1-1.46-9.3c-.23-3.07-.35-6.12-.48-9.17A58.82,58.82,0,0,1,991.48,128.85Zm7.24.5-.29,8.6a66.59,66.59,0,0,0,.44,8.6c.32,2.83.72,5.64,1.29,8.28a23.25,23.25,0,0,0,1.09,3.63,6.75,6.75,0,0,0,.66,1.3c.22.36.37.39.22.35a1.39,1.39,0,0,0-.3,0s-.1,0,0,0l.23,0,.46-.06c.65-.11,1.33-.23,2-.38,1.36-.3,2.74-.67,4.12-1.07,2.75-.78,5.49-1.73,8.17-2.77s5.34-2.17,7.9-3.43a58.18,58.18,0,0,0,7.3-4.14c2.21-1.52,4.42-3.14,5.53-4.94a3,3,0,0,0,.44-2.39l-.24-.56c-.11-.19-.27-.38-.4-.58a2.25,2.25,0,0,0-.28-.32l-.33-.35-.66-.71a75.24,75.24,0,0,0-13.5-9.63,53.72,53.72,0,0,0-15.92-5.8c-.68-.13-1.34-.18-2-.27a14.46,14.46,0,0,0-2,0,8.79,8.79,0,0,0-1.73.29,3.08,3.08,0,0,0-1.13.63,2,2,0,0,0-.52.86,4,4,0,0,0-.18.58c-.05.23-.09.47-.13.72A32.22,32.22,0,0,0,998.72,129.35Z" transform="translate(-18.54 -24.15)"/></svg>