<?xml version="1.0" encoding="utf-8"?>
<!-- Generator: Adobe Illustrator 23.0.6, SVG Export Plug-In . SVG Version: 6.00 Build 0)  -->
<svg version="1.1" id="Layer_1" xmlns="http://www.w3.org/2000/svg" xmlns:xlink="http://www.w3.org/1999/xlink" x="0px" y="0px"
	 viewBox="0 0 1254.8 969.8" style="enable-background:new 0 0 1254.8 969.8;" xml:space="preserve">
<style type="text/css">
	.st0{fill:#EFE3D5;}
	.st1{fill:#FFFFFF;stroke:#CCCCCC;stroke-width:15;stroke-miterlimit:10;}
</style>
<title>Artboard 7</title>
<g>
	<polygon class="st0" points="360.2,116.6 70.3,753.5 235.3,775.4 468.8,874.3 712.4,797.9 976.6,697.7 1037.4,452 1126.5,78
		933.5,80.3 758.3,178 557.7,125.1 	"/>
	<path class="st1" d="M345.8,82.6C344.5,49.1,29.1,789.7,29.1,789.7c310.3-52.2,448.1,142.7,448.1,142.7l255.7-781.3
		C385.2,17.6,345.8,82.6,345.8,82.6z M375.3,147.1c0,0,60-14.9,130.9,13.1l-67,157c0,0-72.6-28.4-141.5-5L375.3,147.1z M179.5,588
		c167.1,4.1,270.6,44.3,270.6,44.3c-95.4,5.1-338.9,94.2-338.9,94.2L179.5,588z M441.8,833.5c-82.1-63.9-195.2-83-195.2-83
		c79.7-51.6,232.7-68.8,232.7-68.8L441.8,833.5z M515.6,612.9c0,0-155.5-106-317.7-73.4L272,369.8c0,0,168.3-26.2,305.6,67.8
		L515.6,612.9z M488.3,328.7L563,174.9c0,0,67.8,4,92.1,41.9L596.5,388C596.5,388,555.2,349.8,488.3,328.7z"/>
	<path class="st1" d="M957.8,50.2c-97.2,26.6-160.4,66.1-198.5,87.6c-10.8,6.1-19.6,10.8-26.6,13.3c-48.9,17.7-243,779.7-243,779.7
		c150.6-120.8,512.9-191,512.9-191l117.7-395.5l56.6-190.2l38.8-130.2C1110.9,19.2,1026,31.5,957.8,50.2z M748.5,225.1
		c6.4-15.3,10.2-24.4,20.9-30.1c27.1-21.4,42.9-23,96.2-23.2l-59.4,346.4c-74.1,21-155.1,66.5-155.1,66.5L748.5,225.1z M955.2,671.2
		c0,0-241.8,22.8-378.2,130.5l48.3-154.2c0,0,213.1-132.8,352.2-98.8L955.2,671.2z M989.1,491.1c0,0-68.5-18.3-132.2,8.8l10.9-56.5
		c0,0,106.1-34.9,143.7-17.4L989.1,491.1z M1094.2,142.7l-61.7,210.4l-9.1,31.1c0,0-56.1-9.9-150.8,25l0.6-3.3l14.5-76.9l32-169.1
		c0,0,38.3-24.7,88.3-37c28.6-7,61-9.9,92.3-1.8L1094.2,142.7z"/>
</g>
</svg>
