<?xml version="1.0" standalone="no"?>
<!DOCTYPE svg PUBLIC "-//W3C//DTD SVG 20010904//EN"
 "http://www.w3.org/TR/2001/REC-SVG-20010904/DTD/svg10.dtd">
<svg version="1.0" xmlns="http://www.w3.org/2000/svg"
 width="1255.000000pt" height="1255.000000pt" viewBox="0 0 1255.000000 1255.000000"
 preserveAspectRatio="xMidYMid meet">
<metadata>
Created by potrace 1.11, written by Peter Selinger 2001-2013
</metadata>
<g transform="translate(0.000000,1255.000000) scale(0.100000,-0.100000)"
fill="#000000" stroke="none">
<path d="M11417 10973 c-2 -1 -63 -5 -137 -8 -74 -3 -160 -8 -190 -10 -30 -3
-91 -7 -135 -10 -44 -2 -91 -6 -105 -9 -14 -3 -54 -7 -90 -10 -36 -4 -76 -8
-90 -11 -14 -2 -51 -7 -84 -10 -32 -3 -68 -7 -80 -10 -26 -5 -91 -15 -131 -20
-16 -2 -41 -6 -55 -9 -14 -2 -43 -8 -65 -11 -22 -4 -53 -9 -70 -12 -16 -4 -38
-6 -47 -7 -10 0 -18 -4 -18 -9 0 -4 -3 -6 -7 -4 -7 4 -237 -41 -308 -59 -11
-3 -36 -9 -55 -14 -19 -4 -47 -12 -62 -18 -16 -7 -28 -10 -28 -7 0 2 -23 -3
-52 -11 -28 -9 -59 -17 -67 -19 -9 -2 -47 -13 -86 -25 -38 -11 -77 -22 -85
-24 -9 -2 -74 -23 -145 -47 -72 -24 -134 -44 -140 -44 -5 0 -17 -5 -25 -10 -8
-5 -17 -10 -20 -10 -16 -2 -87 -29 -97 -38 -7 -5 -13 -7 -13 -4 0 5 -45 -10
-95 -33 -42 -19 -100 -43 -111 -45 -5 -2 -30 -12 -54 -24 -24 -11 -45 -19 -48
-16 -2 2 -11 -2 -19 -10 -7 -8 -32 -19 -53 -25 -22 -6 -40 -14 -40 -19 0 -4
-6 -8 -13 -8 -13 0 -409 -196 -497 -246 -25 -15 -61 -34 -80 -44 -19 -9 -62
-33 -95 -53 -33 -20 -67 -39 -75 -43 -8 -4 -33 -18 -55 -31 -22 -14 -61 -36
-86 -50 -25 -13 -66 -36 -90 -50 -24 -14 -77 -42 -118 -62 l-74 -35 -81 31
c-44 17 -103 40 -130 51 -27 10 -52 19 -56 19 -4 0 -25 8 -46 17 -22 9 -41 17
-44 18 -3 1 -12 4 -20 7 -8 4 -28 11 -45 16 -16 6 -95 33 -175 62 -177 62
-529 181 -550 185 -8 2 -16 4 -17 5 -2 2 -7 4 -13 5 -5 1 -11 3 -12 5 -2 1
-10 3 -18 5 -8 2 -37 11 -64 20 -27 9 -61 19 -75 22 -14 2 -27 8 -29 13 -2 5
-10 6 -18 3 -8 -3 -20 -1 -27 5 -7 6 -24 13 -37 15 -14 3 -52 13 -85 23 -33
10 -62 19 -65 19 -3 1 -25 7 -50 14 -25 7 -53 15 -62 17 -10 2 -28 7 -40 10
-13 3 -30 7 -38 9 -8 2 -16 4 -17 5 -2 2 -6 3 -10 4 -5 1 -18 5 -31 10 -12 4
-34 9 -50 11 -15 2 -27 4 -27 5 0 1 -7 3 -15 5 -8 2 -24 6 -35 9 -22 6 -138
34 -170 41 -11 2 -83 18 -160 35 -171 37 -190 40 -236 44 -20 2 -41 6 -46 9
-6 4 -34 9 -64 12 -55 6 -94 12 -94 15 0 1 -18 3 -40 5 -22 1 -67 6 -100 10
-33 4 -80 8 -105 9 -25 1 -50 4 -55 7 -10 5 -400 4 -400 -1 0 -2 -13 -4 -30
-6 -67 -6 -111 -12 -125 -16 -8 -3 -50 -15 -92 -27 -109 -30 -278 -135 -278
-173 0 -4 -7 -16 -15 -25 -8 -10 -15 -20 -14 -23 1 -3 -12 -27 -28 -55 -44
-75 -144 -275 -137 -275 3 0 -2 -7 -10 -16 -9 -8 -14 -20 -11 -25 4 -5 2 -9
-3 -9 -8 0 -24 -36 -19 -43 1 -1 -8 -16 -21 -34 -12 -17 -22 -35 -22 -41 0 -5
-20 -49 -44 -99 -24 -49 -54 -114 -67 -144 -13 -30 -26 -56 -30 -59 -3 -3 -10
-16 -14 -30 -4 -14 -24 -59 -44 -100 -19 -41 -36 -77 -37 -80 -1 -5 -30 -69
-85 -185 -12 -27 -24 -52 -24 -55 -4 -14 -27 -65 -59 -129 -19 -39 -33 -71
-31 -71 3 0 -4 -16 -15 -35 -11 -20 -20 -42 -20 -50 0 -8 -4 -15 -10 -15 -5 0
-10 -7 -10 -16 0 -9 -6 -28 -14 -42 -13 -24 -26 -54 -74 -162 -9 -19 -16 -37
-17 -40 0 -3 -9 -19 -18 -37 -9 -18 -17 -39 -17 -48 0 -8 -4 -15 -10 -15 -5 0
-10 -9 -10 -20 0 -11 -5 -20 -11 -20 -5 0 -8 -4 -4 -9 3 -5 1 -12 -5 -16 -6
-4 -8 -11 -5 -16 4 -5 1 -9 -4 -9 -6 0 -11 -6 -11 -13 0 -7 -16 -45 -35 -85
-19 -40 -34 -75 -34 -77 0 -3 -11 -29 -24 -58 -14 -28 -46 -101 -72 -162 -27
-60 -63 -143 -82 -183 -18 -41 -33 -78 -33 -83 0 -5 -5 -9 -12 -9 -6 0 -9 -3
-5 -6 5 -6 -5 -33 -53 -139 -37 -83 -65 -146 -101 -230 -18 -44 -36 -82 -39
-85 -3 -3 -6 -10 -7 -16 -2 -12 -29 -74 -109 -249 -7 -16 -14 -37 -16 -45 -2
-8 -9 -21 -16 -28 -6 -7 -12 -21 -12 -30 0 -9 -9 -30 -19 -46 -11 -17 -18 -33
-15 -37 2 -4 0 -10 -6 -14 -5 -3 -10 -14 -10 -24 0 -10 -7 -24 -15 -31 -8 -7
-15 -18 -15 -26 0 -7 -13 -41 -29 -76 -36 -78 -64 -141 -66 -150 -2 -5 -4 -11
-5 -15 -1 -5 -2 -11 -1 -15 0 -5 -3 -8 -8 -8 -7 0 -16 -20 -20 -45 0 -3 -12
-27 -26 -55 -14 -27 -25 -56 -25 -65 0 -8 -4 -15 -10 -15 -5 0 -10 -7 -10 -15
0 -14 -27 -78 -61 -146 -10 -20 -16 -39 -12 -43 3 -3 1 -6 -5 -6 -7 0 -12 -6
-12 -13 0 -7 -10 -33 -22 -58 -11 -24 -21 -50 -21 -56 0 -7 -4 -13 -9 -13 -4
0 -8 -5 -8 -11 0 -6 -23 -63 -51 -126 -28 -64 -52 -122 -53 -128 -1 -7 -8 -20
-15 -29 -7 -9 -11 -16 -7 -16 4 0 0 -10 -9 -23 -8 -13 -12 -27 -8 -30 3 -4 1
-7 -5 -7 -7 0 -12 -5 -12 -10 0 -6 -27 -72 -59 -148 -78 -179 -85 -196 -83
-204 1 -5 -2 -8 -8 -8 -5 0 -10 -9 -10 -20 0 -11 -4 -20 -8 -20 -5 0 -9 -6 -9
-12 0 -7 -9 -33 -21 -58 -23 -50 -131 -302 -137 -320 -1 -3 -10 -23 -19 -45
-10 -22 -24 -55 -32 -72 -8 -18 -20 -48 -28 -65 -74 -170 -93 -218 -88 -222 3
-3 0 -6 -6 -6 -7 0 -12 -9 -12 -20 0 -11 -5 -20 -10 -20 -6 0 -9 -3 -8 -7 1
-9 -6 -31 -34 -93 -26 -58 -41 -93 -43 -105 -2 -5 -16 -39 -33 -75 -26 -59
-43 -97 -47 -110 -1 -3 -6 -16 -13 -30 -25 -58 -115 -264 -131 -305 -27 -64
-33 -80 -32 -83 1 -1 -5 -15 -14 -30 -14 -26 -85 -190 -85 -198 0 -2 6 -1 13
1 6 3 28 7 47 10 19 3 44 7 55 9 11 2 40 7 65 10 25 4 56 9 70 11 134 21 142
22 320 40 167 18 328 27 529 28 184 1 455 -8 511 -17 14 -3 57 -7 95 -11 39
-3 84 -8 100 -10 17 -3 48 -7 70 -10 22 -3 54 -8 70 -11 17 -3 41 -6 55 -8 14
-2 36 -6 50 -9 14 -4 39 -8 55 -10 41 -6 187 -37 205 -44 8 -4 22 -7 30 -7 8
-1 21 -5 27 -9 7 -5 13 -6 13 -4 0 3 37 -6 83 -20 45 -13 91 -26 101 -28 27
-6 147 -45 171 -55 11 -5 40 -16 65 -24 25 -8 56 -19 70 -24 14 -6 50 -20 80
-32 65 -26 96 -40 170 -73 30 -14 58 -24 61 -24 4 1 15 -5 25 -14 11 -9 35
-22 54 -30 19 -7 67 -31 105 -53 39 -21 84 -46 100 -54 17 -8 49 -28 71 -43
23 -16 44 -25 48 -22 3 4 6 1 6 -5 0 -7 7 -12 15 -12 8 0 15 -4 15 -10 0 -5 4
-10 9 -10 10 0 129 -77 149 -97 7 -7 17 -13 22 -13 5 0 19 -9 32 -20 12 -11
61 -49 108 -84 142 -108 222 -178 367 -322 62 -61 113 -116 113 -123 0 -7 4
-9 10 -6 6 3 10 -1 10 -9 0 -9 4 -16 9 -16 5 0 28 -26 52 -57 24 -32 50 -64
57 -71 6 -7 12 -18 12 -24 0 -6 7 -16 17 -23 9 -7 17 -23 18 -36 1 -13 5 -23
9 -22 7 1 133 100 194 151 15 12 32 26 37 30 6 4 26 19 45 33 19 14 73 51 120
82 47 32 90 61 97 67 7 6 24 15 38 22 14 6 25 15 25 20 0 4 5 8 10 8 9 0 41
18 136 77 10 7 51 29 89 49 39 20 72 39 75 43 9 12 541 271 556 271 2 0 32 13
66 29 59 27 209 90 253 107 11 4 23 6 28 6 4 -1 7 2 7 8 0 5 5 10 12 10 7 0
80 27 162 59 150 59 182 70 191 71 3 0 18 6 33 14 15 7 61 25 102 39 41 14
147 51 235 82 88 31 168 58 177 60 9 2 26 9 37 15 12 6 21 8 21 5 0 -2 22 4
50 15 27 11 60 22 72 24 13 3 48 13 80 24 31 11 59 18 62 15 3 -4 6 -1 6 6 0
8 8 11 20 8 11 -3 20 -1 20 4 0 5 6 9 13 9 7 0 48 11 91 25 44 14 89 27 100
29 19 4 68 19 106 33 8 3 22 7 30 9 14 2 71 19 148 43 17 5 32 7 32 4 0 -3 6
-1 13 4 11 10 149 48 172 48 6 0 12 2 15 5 4 5 104 34 155 45 11 3 74 19 140
36 66 17 128 33 138 35 9 2 25 6 35 9 82 22 217 55 235 57 12 2 28 7 35 11 6
5 12 6 12 3 0 -3 11 -1 26 4 14 6 39 12 57 15 18 4 70 15 117 26 161 38 175
41 190 44 8 2 90 19 182 39 92 20 176 36 186 36 16 0 33 39 48 108 1 8 6 21
10 30 4 9 8 22 9 28 7 29 37 131 44 149 5 11 21 63 35 115 15 52 41 140 57
195 17 55 32 107 34 115 2 8 4 15 5 15 1 0 3 8 6 17 5 21 7 28 23 88 7 25 15
52 18 60 4 8 7 18 8 23 2 4 4 9 5 12 3 6 4 11 14 50 4 17 16 57 26 90 37 117
52 166 55 183 2 9 4 18 5 20 2 1 4 7 5 12 1 6 4 12 5 15 3 6 3 6 14 55 5 19
11 40 15 45 3 6 6 13 7 18 1 4 2 8 4 10 1 1 3 11 5 22 4 21 30 111 45 155 5
14 25 84 45 155 21 72 41 137 45 145 4 9 11 31 16 50 4 19 9 38 10 43 1 4 3 9
4 12 1 3 3 8 4 13 4 15 38 129 66 222 37 120 74 243 76 253 1 4 2 8 4 10 1 2
4 11 14 52 2 11 9 31 14 45 5 14 10 27 10 30 0 3 10 39 23 80 12 41 23 80 25
85 2 11 27 93 49 165 8 25 15 54 17 65 2 11 6 22 9 25 3 3 11 25 18 50 6 25
13 50 15 55 1 6 6 27 11 48 4 20 11 40 16 43 5 3 9 13 9 21 0 15 21 89 72 250
10 34 20 71 21 82 1 12 5 21 10 21 4 0 7 6 6 13 -1 6 0 19 3 27 3 8 13 42 23
75 9 33 19 67 23 75 3 8 6 20 7 25 1 6 14 50 29 99 16 49 29 94 31 100 1 6 4
18 7 26 15 43 52 167 55 183 2 10 13 48 25 85 12 37 21 71 20 75 -1 4 3 17 9
28 6 11 12 29 14 40 2 11 18 64 34 117 17 53 33 111 37 127 4 17 9 35 13 40 3
6 7 19 8 30 2 11 6 27 10 35 3 8 7 18 8 23 2 4 3 8 5 10 1 1 3 11 5 21 6 30
18 71 28 96 5 12 20 64 33 115 1 6 24 80 49 165 26 85 48 160 50 165 1 6 7 23
14 39 6 16 9 31 6 34 -2 3 0 11 6 19 6 7 8 13 4 13 -4 0 -2 7 5 15 7 8 9 15 5
15 -4 0 -2 7 5 15 6 8 9 19 5 25 -3 5 -1 10 6 10 7 0 10 3 6 6 -3 3 -1 18 5
33 5 14 11 33 13 42 4 19 52 181 93 309 14 47 27 90 27 95 1 6 11 43 24 83 13
40 24 78 25 85 2 7 11 39 21 72 11 33 20 62 20 65 1 3 7 25 15 50 7 25 14 50
16 55 1 6 9 30 17 55 8 25 18 59 23 75 11 42 11 45 14 48 1 1 3 9 5 17 2 8 33
114 70 235 36 121 68 229 71 240 2 11 10 38 18 60 8 22 13 42 11 43 -9 10
-830 24 -838 15z"/>
</g>
</svg>
